<svg xmlns="http://www.w3.org/2000/svg" viewBox="0 0 64 64" width="64" height="64">
  <defs>
    <linearGradient id="bg" x1="0%" y1="0%" x2="100%" y2="100%">
      <stop offset="0%" style="stop-color:#1a3a2a"/>
      <stop offset="100%" style="stop-color:#16A34A"/>
    </linearGradient>
    <linearGradient id="leaf" x1="0%" y1="0%" x2="100%" y2="100%">
      <stop offset="0%" style="stop-color:#22C55E"/>
      <stop offset="100%" style="stop-color:#86EFAC"/>
    </linearGradient>
  </defs>
  <!-- Rounded background -->
  <rect x="2" y="2" width="60" height="60" rx="14" ry="14" fill="url(#bg)"/>
  <!-- Wind lines -->
  <g stroke="#86EFAC" stroke-width="2.5" stroke-linecap="round" fill="none" opacity="0.6">
    <path d="M12 22 Q28 18 36 22 Q42 25 38 28"/>
    <path d="M10 32 Q26 28 38 32 Q46 35 42 38"/>
    <path d="M14 42 Q30 38 40 42 Q44 44 42 46"/>
  </g>
  <!-- Leaf / air drop shape -->
  <path d="M32 12 Q44 24 44 36 Q44 48 32 52 Q20 48 20 36 Q20 24 32 12Z" fill="url(#leaf)" opacity="0.85"/>
  <!-- Vein / midrib of leaf -->
  <line x1="32" y1="16" x2="32" y2="48" stroke="#1a3a2a" stroke-width="1.5" opacity="0.4"/>
  <path d="M32 26 Q26 30 24 34" stroke="#1a3a2a" stroke-width="1" fill="none" opacity="0.3"/>
  <path d="M32 30 Q38 34 40 38" stroke="#1a3a2a" stroke-width="1" fill="none" opacity="0.3"/>
  <!-- JV text -->
  <text x="32" y="39" text-anchor="middle" font-family="Arial,sans-serif" font-weight="bold" font-size="14" fill="#1a3a2a" opacity="0.7">JV</text>
</svg>
